<svg xmlns="http://www.w3.org/2000/svg" viewBox="0 0 119 119"><defs><style>.cls-1{fill:#efe0d3;}.cls-2{fill:none;stroke:#ffa300;stroke-miterlimit:10;stroke-width:3px;}.cls-3{fill:#ffa300;}</style></defs><g id="Camada_2" data-name="Camada 2"><g id="Camada_1-2" data-name="Camada 1"><circle class="cls-1" cx="59.5" cy="59.5" r="59.5"/><line class="cls-2" x1="35.36" y1="59.53" x2="92.26" y2="59.53"/><path class="cls-3" d="M55.87,73.93a1.51,1.51,0,0,0-.47-2.07L36.05,59.53,55.4,47.2a1.5,1.5,0,0,0,.47-2.07,1.52,1.52,0,0,0-2.08-.46L32.45,58.27a1.49,1.49,0,0,0-.69,1.26,1.52,1.52,0,0,0,.69,1.27L53.79,74.39a1.5,1.5,0,0,0,.81.24A1.52,1.52,0,0,0,55.87,73.93Z"/></g></g></svg>