<svg xmlns="http://www.w3.org/2000/svg" viewBox="0 0 59.23 59.23"><defs><style>.cls-1{fill:#c63f3b;}</style></defs><g id="Camada_2" data-name="Camada 2"><g id="Camada_1-2" data-name="Camada 1"><path class="cls-1" d="M29.64,59.22H6.52C2.41,59.22,0,56.81,0,52.68V14.41c0-4.1,2.43-6.51,6.55-6.52,1.46,0,2.93,0,4.39,0,.73,0,1-.22.9-.92A7.85,7.85,0,0,1,12,4.57a5.9,5.9,0,0,1,11.64.88c.17,2.44.17,2.44,2.64,2.44,2.66,0,5.32,0,8,0,1,0,1.42-.18,1.29-1.25a5.93,5.93,0,0,1,.19-2.29A5.93,5.93,0,0,1,42.05,0a6,6,0,0,1,5.34,5.75c.11,2.11.11,2.11,2.23,2.11,1.19,0,2.39,0,3.58,0a5.9,5.9,0,0,1,6,6q0,19.65,0,39.3a5.87,5.87,0,0,1-6.11,6C45.28,59.24,37.46,59.22,29.64,59.22Zm0-35.54c-8.13,0-16.27,0-24.4,0-1,0-1.29.21-1.29,1.26C4,34.17,4,43.42,4,52.67c0,2,.65,2.61,2.65,2.61h46c2,0,2.65-.64,2.65-2.61,0-9.25,0-18.5,0-27.75,0-1.06-.31-1.26-1.29-1.26C45.87,23.7,37.74,23.68,29.61,23.68Zm0-4h24.5c.73,0,1.23,0,1.17-1-.09-1.46,0-2.93,0-4.39,0-1.81-.7-2.5-2.53-2.5H41.87a4.56,4.56,0,0,0-2.14.14c-.57.35-.12,1.29-.25,1.95,0,.16-.06.31-.1.45a1.86,1.86,0,0,1-1.9,1.39,1.79,1.79,0,0,1-1.82-1.33,2.82,2.82,0,0,1-.1-1.26c.17-1.15-.33-1.38-1.42-1.37-5.39.06-10.78,0-16.17,0-2,0-2,0-2.2,2.05A1.9,1.9,0,0,1,14,15.77,1.94,1.94,0,0,1,11.86,14a6,6,0,0,1,0-1.27c.06-.66-.11-1-.87-.95-1.62.06-3.24,0-4.85,0A2,2,0,0,0,4,14c0,1.5.06,3,0,4.51-.06.95.23,1.22,1.2,1.22C13.29,19.71,21.46,19.72,29.63,19.72Zm-12-11.83c2.34,0,2,.24,2-1.23,0-1.77-.64-2.69-1.92-2.7s-2,1-2,2.65C15.8,8.12,15.55,7.86,17.67,7.89Zm23.8,0c.69-.32,2.11.73,2-1.2s-.73-2.78-2-2.76-1.82.94-2,2.7S40.65,7.7,41.47,7.92Z"/><path class="cls-1" d="M29.57,31.58a2,2,0,1,1,.14-3.92,2,2,0,0,1-.14,3.92Z"/><path class="cls-1" d="M17.77,39.57a2,2,0,0,1-2.09,1.86,1.91,1.91,0,0,1-1.83-2.09,2,2,0,0,1,2-1.84A2,2,0,0,1,17.77,39.57Z"/><path class="cls-1" d="M43.37,41.44a2,2,0,0,1-1.92-2,2,2,0,0,1,2-1.89,2,2,0,0,1,1.95,2A1.92,1.92,0,0,1,43.37,41.44Z"/><path class="cls-1" d="M15.83,51.34a2,2,0,0,1-2-2,1.9,1.9,0,0,1,1.86-2,2,2,0,0,1,2.07,1.89A2.05,2.05,0,0,1,15.83,51.34Z"/><path class="cls-1" d="M45.38,49.38a2,2,0,0,1-2,2,2,2,0,0,1-1.92-2.06,2,2,0,0,1,2-1.88A1.92,1.92,0,0,1,45.38,49.38Z"/><path class="cls-1" d="M17.78,29.62a2,2,0,0,1-2,2,2,2,0,0,1,0-3.93A2,2,0,0,1,17.78,29.62Z"/><path class="cls-1" d="M43.44,31.58a2,2,0,1,1,0-3.93,2,2,0,0,1,0,3.93Z"/><path class="cls-1" d="M31.57,39.5a2,2,0,0,1-3.92,0,2,2,0,1,1,3.92,0Z"/><path class="cls-1" d="M29.55,47.4a2,2,0,0,1,2,1.93,2,2,0,0,1-3.92.11A1.94,1.94,0,0,1,29.55,47.4Z"/></g></g></svg>