<svg xmlns="http://www.w3.org/2000/svg" viewBox="0 0 55.3 25.98"><defs><style>.cls-1{fill:#ffa300;}</style></defs><g id="Camada_2" data-name="Camada 2"><g id="Camada_1-2" data-name="Camada 1"><path class="cls-1" d="M13.78,23.44c-1.44,0-2.19-1.35-1.86-3,.41-2.08.87-4.14,1.36-6.2.2-.82.15-1.25-.53-1.59A28.62,28.62,0,0,1,7.13,9c-.56-.46-.83-.33-1.14.4-.84,2-1.71,3.9-2.59,5.83-.77,1.7-1.65,2.17-2.59,1.43S-.26,14.58.47,12.9C1.31,11,2.11,9.07,3,7.23c.48-1,.54-1.63-.27-2.26a4.77,4.77,0,0,1-1-1.2,2.67,2.67,0,0,1,.07-3A1.28,1.28,0,0,1,3.92.41C4.5.91,5,1.6,5.55,2.15,16,12.51,27.38,14.52,39.53,8.6A44.94,44.94,0,0,0,50.32.88c.51-.47,1-.93,1.69-.82A1.75,1.75,0,0,1,53.38,1.5,2.47,2.47,0,0,1,53,3.92c-.56.58-.41,1-.06,1.6.68,1.18,1.34,2.38,2,3.6a2.86,2.86,0,0,1-.26,3.39c-.81.8-1.71.59-2.45-.66s-1.5-2.64-2.2-4c-.33-.63-.61-.69-1.1-.29a39.52,39.52,0,0,1-7.24,4.8c-.6.31-.72.65-.47,1.47.58,1.89,1.09,3.82,1.6,5.74.44,1.66.15,2.89-.76,3.4s-1.9-.07-2.39-1.73C39,19.3,38.49,17.33,38,15.35c-.22-.84-.52-1.1-1.18-.85a23.87,23.87,0,0,1-7,1.63c-.76.05-.95.52-.92,1.47,0,1.83,0,3.66,0,5.49S28.24,26,27.2,26s-1.68-1.07-1.69-2.85,0-3.77,0-5.66c0-.84-.19-1.18-.82-1.23a26.92,26.92,0,0,1-7.24-1.5c-.69-.25-.84.3-1,1q-.6,2.88-1.25,5.73C15,22.62,14.47,23.42,13.78,23.44Z"/></g></g></svg>