<svg xmlns="http://www.w3.org/2000/svg" viewBox="0 0 50.8 32.34"><defs><style>.cls-1{fill:#ffa300;}</style></defs><g id="Camada_2" data-name="Camada 2"><g id="Camada_1-2" data-name="Camada 1"><path class="cls-1" d="M25.48,32.34c-5.31,0-9.91-2-14.19-4.81A46.57,46.57,0,0,1,.93,17.93c-1.24-1.54-1.24-2,0-3.53A44.81,44.81,0,0,1,14.61,2.83C22.4-1.27,30-.82,37.53,3.56A45.39,45.39,0,0,1,50,14.59c1.06,1.33,1.06,1.83,0,3.14-4.64,5.69-10,10.44-16.95,13.15A21.4,21.4,0,0,1,25.48,32.34ZM25.36,29A18.64,18.64,0,0,0,31.28,28c6.24-2.22,11-6.43,15.28-11.29.4-.46.23-.72-.08-1.08A43.27,43.27,0,0,0,36.17,6.67C29.84,2.84,23.33,2.15,16.58,5.59A41.52,41.52,0,0,0,4.22,15.67c-.45.52-.15.79.16,1.15A44.32,44.32,0,0,0,13,24.64,22.69,22.69,0,0,0,25.36,29Z"/><path class="cls-1" d="M25.38,26.21a10.05,10.05,0,1,1,10.07-10A10.1,10.1,0,0,1,25.38,26.21Zm0-3.35a6.7,6.7,0,1,0-6.71-6.69A6.77,6.77,0,0,0,25.4,22.86Z"/></g></g></svg>