<svg xmlns="http://www.w3.org/2000/svg" viewBox="0 0 119 119"><defs><style>.cls-1{fill:#efe0d3;}.cls-2{fill:#ffa300;stroke:#ffa300;stroke-miterlimit:10;}</style></defs><g id="Camada_2" data-name="Camada 2"><g id="Camada_1-2" data-name="Camada 1"><circle class="cls-1" cx="59.5" cy="59.5" r="59.5"/><path class="cls-2" d="M61,29a5.24,5.24,0,0,1,1.89,1.41L87.32,54.86a2.54,2.54,0,0,1,.84,2.69,2.31,2.31,0,0,1-2.1,1.7,19.64,19.64,0,0,1-2.17,0c-.4,0-.52.11-.51.52q0,4.62,0,9.24V83.5c0,.94-.24,1.18-1.19,1.18h-14c-1,0-1.23-.23-1.23-1.26Q67,73.22,67,63c0-.51-.11-.66-.64-.66q-5.93,0-11.85,0c-.49,0-.63.11-.63.61q0,10.2,0,20.39c0,1.1-.21,1.3-1.31,1.3H38.72c-1,0-1.22-.23-1.23-1.2q0-5.17,0-10.33a2.66,2.66,0,0,1,0-.49.78.78,0,0,1,.81-.67.76.76,0,0,1,.79.68,3.33,3.33,0,0,1,0,.55q0,4.64,0,9.29c0,.41.07.55.52.55q6,0,12.07,0c.48,0,.56-.15.56-.58,0-6.82,0-13.63,0-20.45,0-1.08.19-1.27,1.25-1.27H67.37c1.06,0,1.25.19,1.25,1.27,0,6.78,0,13.56,0,20.34,0,.52.09.7.67.7q5.93,0,11.85,0c.55,0,.64-.16.64-.67,0-7.83,0-15.66,0-23.49,0-1.06.2-1.26,1.27-1.26h2.66a.85.85,0,0,0,.88-.5.83.83,0,0,0-.25-1L85.05,54.9,61.36,31.21,61.13,31a.85.85,0,0,0-1.37,0l-.23.23L34.81,55.93l-.19.19a.85.85,0,0,0-.32,1,.86.86,0,0,0,.92.52h2.72c1,0,1.19.23,1.19,1.19V69.17a3.2,3.2,0,0,1,0,.44.77.77,0,0,1-.81.72.75.75,0,0,1-.8-.72,2.68,2.68,0,0,1,0-.49q0-4.65,0-9.3c0-.42-.09-.58-.53-.55s-.87,0-1.31,0c-1.83,0-2.37-.35-3.06-2v-1a5.28,5.28,0,0,1,1.33-1.81Q46,42.45,58.05,30.37A5.32,5.32,0,0,1,59.9,29Z"/></g></g></svg>