<svg xmlns="http://www.w3.org/2000/svg" viewBox="0 0 196.4 262.4"><defs><style>.cls-1{fill:#c63f3b;}</style></defs><g id="Camada_2" data-name="Camada 2"><g id="Camada_1-2" data-name="Camada 1"><path class="cls-1" d="M196.4,147.71q0,9.85,0,19.71,0,16.38,0,32.76,0,14.46,0,28.93c0,2.09,0,4.18,0,6.27a30.59,30.59,0,0,1-2.44,11.43,24.82,24.82,0,0,1-12.78,13,28.37,28.37,0,0,1-8,2.27,38.54,38.54,0,0,1-5.37.35H28.42a33.11,33.11,0,0,1-10.51-1.57,24.69,24.69,0,0,1-13.83-11,27.74,27.74,0,0,1-3.51-9.61A39.2,39.2,0,0,1,0,233.32V62.18a35.73,35.73,0,0,1,1.57-11A25.22,25.22,0,0,1,8,40.54a25.1,25.1,0,0,1,8.46-5.38,30.23,30.23,0,0,1,7-1.78A36.06,36.06,0,0,1,28.54,33c2.06,0,4.12-.1,6.18,0,.62,0,1.24.09,1.85.14A13.89,13.89,0,0,0,40.38,33a4.7,4.7,0,0,0,3.91-3.78,7.86,7.86,0,0,0,.23-1.94c0-.65,0-1.31-.05-2a2.61,2.61,0,0,1,1.43-2.5,6.57,6.57,0,0,1,2.6-.8,37.6,37.6,0,0,1,4.5-.15q6.33,0,12.65,0a14.48,14.48,0,0,1,1.47.08,8.22,8.22,0,0,0,2.43-.21,4.38,4.38,0,0,0,2.84-2.11,9.87,9.87,0,0,0,.8-1.67,32,32,0,0,1,4.67-8.25A25,25,0,0,1,92.7.51,27.86,27.86,0,0,1,99.52,0a24.77,24.77,0,0,1,17.62,8.06,30.15,30.15,0,0,1,5.69,9c.22.51.41,1,.63,1.54a6.26,6.26,0,0,0,1.2,1.89,4.46,4.46,0,0,0,2.66,1.35,14.38,14.38,0,0,0,2.54.07c1.92-.07,3.85-.08,5.78-.08,3.21,0,6.41,0,9.61.05a17.67,17.67,0,0,1,3.41.32,6,6,0,0,1,1.12.34,3.16,3.16,0,0,1,1.88,2,8.2,8.2,0,0,1,.43,2.5,13.72,13.72,0,0,0,.16,2.64c.05.23.07.45.13.67A3.35,3.35,0,0,0,155.54,33a11.76,11.76,0,0,0,1.57,0c4.09-.13,8.17-.09,12.26,0a28.42,28.42,0,0,1,13.78,3.63A25.12,25.12,0,0,1,195,51.54a29.78,29.78,0,0,1,1.24,6.83c.1,1.47.12,2.93.12,4.4v84.94ZM9.25,147.4v84.54A42.33,42.33,0,0,0,9.63,238a23.93,23.93,0,0,0,1.21,4.94A13.93,13.93,0,0,0,18.25,251a20.35,20.35,0,0,0,4.75,1.5,36.5,36.5,0,0,0,6.92.62q20.05,0,40.12,0h40.21c4.9,0,9.81,0,14.71,0,9.22,0,18.44,0,27.66.14,3.85.07,7.71.07,11.57.07a44,44,0,0,0,5.38-.17,24.68,24.68,0,0,0,6.63-1.64,16.64,16.64,0,0,0,8.28-7.2,22.53,22.53,0,0,0,2.64-8.46,36.05,36.05,0,0,0,.2-5.09c-.06-4.9,0-9.8-.12-14.71-.08-2.87,0-5.75,0-8.63q0-11-.05-22.06v-30q0-13.18,0-26.38,0-18.5,0-37,0-10,0-20,0-6,0-12a19.45,19.45,0,0,0-.6-4.75A16,16,0,0,0,174.71,43a20.08,20.08,0,0,0-5.62-.73q-4.07,0-8.14,0a11.54,11.54,0,0,1-1.66-.08,13,13,0,0,0-2.64-.1,4.19,4.19,0,0,0-4.23,3.4,11.92,11.92,0,0,0-.33,2.91,16.73,16.73,0,0,1-.82,5.4,14.55,14.55,0,0,1-3.87,6.28,14.28,14.28,0,0,1-10,4c-5.2.06-10.39,0-15.59.11-5.49.09-11,.06-16.48.06-10.59,0-21.18,0-31.77-.12-4.87-.07-9.74,0-14.61,0a13.11,13.11,0,0,1-4.88-.93,15.89,15.89,0,0,1-9-9,9.51,9.51,0,0,1-.65-5.37,10.15,10.15,0,0,0,.06-2.64,3.9,3.9,0,0,0-2.42-3.42,6.79,6.79,0,0,0-2.46-.6c-.91,0-1.83-.05-2.74,0-2.32.07-4.64.22-7,.18a34.79,34.79,0,0,0-4.89.21,22.89,22.89,0,0,0-6,1.51,14.5,14.5,0,0,0-7.77,7.4,19.59,19.59,0,0,0-1.42,4.37,32.44,32.44,0,0,0-.61,6.52ZM98.2,55h35.3a24.73,24.73,0,0,0,4.78-.38,5.36,5.36,0,0,0,4.53-4.31,14.41,14.41,0,0,0,.38-2.61c.1-2.13,0-4.25,0-6.38a42.72,42.72,0,0,1,.08-4.8,9.87,9.87,0,0,0,0-2.24,3.48,3.48,0,0,0-3.34-3.14,17.23,17.23,0,0,0-1.76,0c-1.8,0-3.59.12-5.39.15-.95,0-1.89-.06-2.84-.07l-8.53-.06a12.34,12.34,0,0,1-2.71-.34,2.63,2.63,0,0,1-1.94-1.64,8.75,8.75,0,0,1-.59-1.86c-.28-1.38-.5-2.76-.8-4.13A17.49,17.49,0,0,0,81.43,21.7c-.45,1.37-.63,2.8-1,4.2a24,24,0,0,1-.86,3,3,3,0,0,1-2.58,2,19.75,19.75,0,0,1-2.44.21l-8.43,0a14.45,14.45,0,0,1-1.47-.06c-1.39-.17-2.79-.29-4.18-.43a11.71,11.71,0,0,0-3.13.1,4.91,4.91,0,0,0-4,3.13,7.77,7.77,0,0,0-.59,2.46,33.3,33.3,0,0,0,0,5.19c.14,1.76.29,3.52.31,5.28,0,.43,0,.86,0,1.28A11.81,11.81,0,0,0,53.76,51a5.1,5.1,0,0,0,3.15,3.27,9.25,9.25,0,0,0,2.38.55c1.43.13,2.87.18,4.3.18Z"/><path class="cls-1" d="M98.28,132.11H155l2.94,0a7.21,7.21,0,0,1,2.21.37,4.29,4.29,0,0,1,3.07,5.11,3.93,3.93,0,0,1-3.35,3.38,16.08,16.08,0,0,1-3,.37c-.52,0-1,0-1.57,0H39.65a13.53,13.53,0,0,1-3.3-.38,5.05,5.05,0,0,1-1.35-.58,3.33,3.33,0,0,1-1.57-2,6,6,0,0,1,0-3.38,3.52,3.52,0,0,1,2.15-2.27,8.81,8.81,0,0,1,3-.59c.39,0,.78,0,1.18,0H98.28Z"/><path class="cls-1" d="M98.27,198.2h56.47c1.08,0,2.16,0,3.24,0a8,8,0,0,1,1.75.2,4.61,4.61,0,0,1,3.55,4.58,4.09,4.09,0,0,1-1.61,3.11,6.5,6.5,0,0,1-3.38,1.18,35.75,35.75,0,0,1-4,.15l-112.56,0c-.89,0-1.77,0-2.65,0a10,10,0,0,1-2.61-.37c-2.21-.6-3.59-2.08-3.21-5.05a3.82,3.82,0,0,1,2.7-3.39,7.91,7.91,0,0,1,2.31-.42h60Z"/><path class="cls-1" d="M98.37,99.1h52.37l6.27,0a9.23,9.23,0,0,1,2.72.23,7.24,7.24,0,0,1,.93.31,4,4,0,0,1,2.56,3.54,5.15,5.15,0,0,1,0,1.36,3.83,3.83,0,0,1-2.69,3.2,9.55,9.55,0,0,1-2.59.48c-.49,0-1,0-1.47,0-3.3,0-6.6.08-9.9.08H40.24a15.91,15.91,0,0,1-3.51-.3,8.49,8.49,0,0,1-1.21-.38,3.38,3.38,0,0,1-2.17-2.7,7,7,0,0,1,0-2.63,3.33,3.33,0,0,1,2-2.53,7.72,7.72,0,0,1,3-.65c1.31,0,2.61,0,3.92,0l5.59,0H98.37Z"/><path class="cls-1" d="M97.9,174.35H40a13.9,13.9,0,0,1-3.22-.23,5,5,0,0,1-2.51-1.24,3.36,3.36,0,0,1-.88-1.51,6,6,0,0,1,0-3.29,3.45,3.45,0,0,1,2-2.27,5.67,5.67,0,0,1,2-.54,18.93,18.93,0,0,1,3.91-.11,9.74,9.74,0,0,0,1.08,0h112.4c1.28,0,2.55,0,3.82,0a5.47,5.47,0,0,1,2.34.65,4.51,4.51,0,0,1,2.09,5.3,4.06,4.06,0,0,1-2.2,2.38,8.79,8.79,0,0,1-3.23.73c-.68.06-1.37,0-2.06,0l-43.55,0Z"/></g></g></svg>